<svg xmlns="http://www.w3.org/2000/svg" viewBox="0 0 115.29 90.024"><path d="M102.791.682L93.639 6.4 67.404 22.793l-10.3-20.281-10.38 24.61-33.66-7.505 18.307 22.035L.154 56.492l30.885 2.27-19.201 30.83L47.225 67.48l10.298 20.282 10.381-24.61 33.66 7.504-18.306-22.035 31.215-14.838-30.885-2.271zM57.523 14.38l7.897 15.547 21.715-13.569L74.97 35.893l20.279 1.49-19.95 9.484L88.364 62.59 64.92 57.363l-7.816 18.53-7.895-15.547-21.715 13.568 12.164-19.533-20.28-1.49 19.95-9.485-13.062-15.722 23.443 5.226z"/></svg>