<svg xmlns="http://www.w3.org/2000/svg" viewBox="0 0 99.819 73.169"><path d="M59.232.436a71.275 71.275 0 0 0-9.779 1.275c-13.362 2.673-25.445 8.82-34.297 16.705C6.305 26.302.576 36.009.576 45.916c0 9.909 6.02 17.904 15.14 22.38 9.122 4.478 21.355 5.75 34.718 3.077 13.362-2.673 25.443-8.82 34.293-16.705 8.85-7.886 14.578-17.592 14.578-27.5 0-9.907-6.02-17.902-15.139-22.379C77.326 1.431 68.737-.124 59.232.436zm.288 5c8.782-.506 16.555.95 22.443 3.841 7.85 3.855 12.342 9.946 12.342 17.891 0 7.946-4.785 16.532-12.905 23.768-8.12 7.235-19.468 13.039-31.947 15.535-12.48 2.496-23.68 1.192-31.533-2.662-7.853-3.855-12.344-9.947-12.344-17.893 0-7.944 4.785-16.53 12.906-23.766 8.122-7.235 19.472-13.039 31.952-15.535a65.595 65.595 0 0 1 9.086-1.18z"/><path d="M55.646 13.37a44.428 44.428 0 0 0-6.16.812c-8.405 1.698-15.992 5.593-21.584 10.625-5.591 5.032-9.293 11.282-9.293 17.808 0 6.527 3.991 11.862 9.856 14.77 5.865 2.908 13.606 3.694 22.012 1.996 8.405-1.698 15.989-5.591 21.58-10.623 5.59-5.032 9.29-11.284 9.29-17.81 0-6.526-3.987-11.86-9.85-14.768-4.399-2.181-9.853-3.17-15.85-2.81zm.292 5c5.267-.305 9.893.58 13.335 2.288 4.59 2.277 7.075 5.706 7.075 10.29 0 4.583-2.774 9.716-7.637 14.093-4.863 4.377-11.71 7.921-19.225 9.44-7.514 1.518-14.21.7-18.8-1.577-4.592-2.276-7.077-5.705-7.077-10.289 0-4.582 2.775-9.716 7.639-14.094 4.864-4.377 11.715-7.919 19.229-9.437a38.932 38.932 0 0 1 5.46-.715z"/><path d="M54.402 26.516c-1.554-.145-3.21-.045-4.918.3-3.414.69-6.473 2.252-8.787 4.334-2.313 2.082-3.986 4.764-3.986 7.807s1.96 5.632 4.547 6.914c2.586 1.283 5.802 1.565 9.217.875 3.414-.69 6.474-2.25 8.787-4.332 2.313-2.082 3.984-4.765 3.984-7.809 0-3.042-1.96-5.629-4.547-6.912-1.293-.641-2.743-1.032-4.297-1.177zm-.472 4.994c1.021.096 1.892.336 2.549.662 1.312.65 1.767 1.333 1.767 2.433 0 1.101-.744 2.665-2.33 4.092-1.586 1.428-3.909 2.639-6.432 3.149-2.523.51-4.692.196-6.005-.455-1.314-.651-1.768-1.334-1.768-2.434s.744-2.662 2.33-4.09c1.586-1.427 3.91-2.64 6.434-3.15a11.909 11.909 0 0 1 3.455-.207z"/></svg>