<svg xmlns="http://www.w3.org/2000/svg" viewBox="0 0 99.823 74.099"><path d="M50 4.189a31.912 49.11 69.663 0 0-.533.12l.174.1c-9.473 1.918-17.153 10.677-17.153 19.564s7.68 14.536 17.153 12.618c9.471-1.917 17.15 3.733 17.15 12.619s-7.679 17.644-17.15 19.56c0 0-4.206 1.263-8.514 2.516-.558.162-1.11.274-1.652.35A31.912 49.11 69.663 0 0 50 70.363a31.912 49.11 69.663 0 0 39.883-23.377c4.067-7.825 5.998-15.936 6.916-22.404.052-.366.084-.733.107-1.1A31.912 49.11 69.663 0 0 50 4.188zM8.006 60.737a46.705 46.705 0 0 0 1.642 1.98 31.912 49.11 69.663 0 0 3.932 3.04c-1.84-1.295-3.706-2.923-5.574-5.02zm14.867 9.134a31.912 49.11 69.663 0 0 13.799 1.831c-2.644-.187-4.863-.989-6.14-1.03-2.269-.076-4.864-.189-7.659-.801z"/><path d="M50.126 1.956C36.692 4.663 24.488 10.881 15.5 18.942 6.514 27.002.659 37.095.659 47.113c0 10.02 5.855 17.755 14.842 22.194s21.19 5.74 34.625 3.034c13.434-2.707 25.637-8.925 34.624-16.986 8.988-8.06 14.84-18.154 14.84-28.173 0-10.019-5.852-17.753-14.84-22.192C75.763.551 63.56-.75 50.126 1.956zm0 5c12.53-2.524 23.833-1.242 31.861 2.724 8.029 3.965 12.7 10.454 12.7 18.49 0 8.036-4.671 16.41-12.7 23.61-8.028 7.2-19.33 13.034-31.861 15.559-12.531 2.525-23.836 1.244-31.864-2.721-8.028-3.965-12.7-10.456-12.7-18.492 0-8.037 4.672-16.408 12.7-23.608 8.028-7.2 19.333-13.037 31.864-15.562z"/></svg>