<svg xmlns="http://www.w3.org/2000/svg" viewBox="0 0 58 58"><path d="M25.55 29.66c-9.39 0-12.88 3.45-12.88 3.45A17 17 0 0 0 27 46.38s-8.07-8.44-1.45-16.72Z"/><path d="M30 12.55c1.4-3.21.16-7.2.16-7.2-1.66 4.9-8.91 9.2-9.34 9.45-4.91 2.84-8.88 7.93-9.1 14 0 0 1.74-1.74 9.69-2.16 8.11-.42 9.69-6.33 9.69-6.33.55 2.21 3.31 4.42 3.31 4.42a7.2 7.2 0 0 1 2.21 5.93 7.66 7.66 0 0 1-3.86 6.77 14 14 0 0 1-7.19 1.1 9.36 9.36 0 0 0 4.25 5.78 7.24 7.24 0 0 0 7.38.34 17 17 0 0 0-7.2-32.1Zm-8.35 9.25c-1.16 1.33-4.34 2.2-4.34 2.2s1.34-4.35 4.86-5.26a3.21 3.21 0 0 1-.52 3.06Z"/></svg>