<svg xmlns="http://www.w3.org/2000/svg" viewBox="0 0 58 58"><path d="M15.49 42.84h-2.62l-3-7.51a5.59 5.59 0 0 1 0-4.14l3-7.5h2.62Zm29.93-.55a.55.55 0 0 1-.55.55h-25a2.14 2.14 0 0 1-2.14-2.14V27.47a1.52 1.52 0 0 1 .09-.49 1.18 1.18 0 0 1-.09-.46v-10a1.38 1.38 0 0 1 1.38-1.38h2.57a1.38 1.38 0 0 1 1.32 1.4v8.79a.55.55 0 0 0 .55.55h1a.55.55 0 0 0 .55-.55v-8.79a1.38 1.38 0 0 1 1.38-1.38h2.62a1.38 1.38 0 0 1 1.38 1.38v8.79a.55.55 0 0 0 .55.55h1a.55.55 0 0 0 .55-.55v-8.79A1.38 1.38 0 0 1 34 15.16h2.57A1.38 1.38 0 0 1 38 16.54v8.79a.55.55 0 0 0 .55.55h1a.55.55 0 0 0 .55-.55v-8.79a1.38 1.38 0 0 1 1.38-1.38H44a1.38 1.38 0 0 1 1.38 1.38Z"/></svg>